<!DOCTYPE svg PUBLIC "-//W3C//DTD SVG 20010904//EN" "http://www.w3.org/TR/2001/REC-SVG-20010904/DTD/svg10.dtd">
<svg version="1.0" xmlns="http://www.w3.org/2000/svg" width="1200px" height="323px" viewBox="0 0 12000 3230" preserveAspectRatio="xMidYMid meet">
<g id="layer101" fill="#ffffff" stroke="none">
 <path d="M1460 2965 c-514 -73 -937 -428 -1099 -922 -263 -799 249 -1642 1078 -1779 138 -22 386 -16 517 14 506 117 900 498 1029 996 166 643 -170 1325 -786 1592 -227 98 -495 134 -739 99z m491 -198 c129 -34 231 -78 340 -146 480 -302 682 -911 474 -1431 -70 -174 -151 -295 -286 -425 -169 -163 -366 -266 -604 -316 -99 -22 -372 -16 -476 9 -354 86 -635 306 -794 622 -86 172 -125 338 -125 536 0 572 406 1061 972 1169 119 23 379 14 499 -18z"/>
 <path d="M1425 2426 c-125 -22 -200 -54 -267 -114 -87 -78 -93 -189 -15 -270 54 -57 59 -57 134 -12 37 22 90 49 119 60 120 45 281 51 373 14 57 -22 101 -82 101 -136 0 -90 -59 -137 -239 -194 -150 -47 -305 -110 -356 -144 -91 -62 -153 -151 -174 -248 -54 -254 85 -463 354 -538 80 -22 306 -30 419 -15 250 34 375 158 307 306 -10 22 -30 51 -45 65 -25 22 -29 23 -59 11 -138 -58 -201 -72 -322 -73 -92 -1 -130 3 -163 17 -58 24 -92 66 -92 116 0 79 23 95 235 169 190 66 294 115 372 174 136 103 197 269 162 438 -53 250 -290 391 -654 387 -66 -1 -151 -7 -190 -13z"/>
 <path d="M6255 2870 c-61 -15 -84 -30 -102 -62 -17 -31 -18 -80 -21 -711 -2 -458 1 -691 8 -718 31 -115 217 -207 460 -228 481 -42 770 194 770 629 0 369 -201 610 -541 650 -87 10 -118 10 -189 -2 -47 -9 -93 -18 -102 -23 -16 -6 -18 9 -20 222 l-3 228 -55 12 c-63 13 -161 15 -205 3z m534 -746 c78 -23 140 -89 166 -174 27 -88 27 -262 1 -339 -24 -69 -84 -129 -155 -155 -62 -22 -185 -18 -244 8 l-37 16 2 313 3 312 50 17 c63 22 146 22 214 2z"/>
 <path d="M8800 2425 c-214 -31 -386 -149 -466 -320 -104 -220 -93 -509 25 -693 99 -152 247 -239 444 -261 319 -36 582 121 652 386 20 77 21 169 2 214 -26 63 -82 87 -272 114 -60 9 -141 21 -180 26 -38 6 -106 16 -150 24 -44 8 -108 17 -142 20 -72 8 -76 16 -40 80 30 52 96 101 165 122 123 37 322 14 451 -52 l48 -24 31 32 c108 112 40 254 -148 310 -64 19 -212 37 -285 36 -27 -1 -88 -7 -135 -14z m83 -771 c253 -41 246 -37 208 -113 -74 -144 -283 -163 -399 -37 -57 62 -93 186 -54 186 9 0 119 -16 245 -36z"/>
 <path d="M3415 2411 c-63 -18 -82 -30 -98 -64 -15 -31 -17 -95 -17 -595 l0 -559 38 -7 c69 -11 221 -7 256 8 18 7 44 29 57 47 l24 34 3 558 3 557 -28 11 c-36 14 -199 21 -238 10z"/>
 <path d="M4076 2402 c-29 -10 -58 -29 -70 -45 -20 -28 -21 -40 -24 -496 l-3 -467 28 -42 c127 -189 580 -269 826 -146 28 14 60 33 70 42 16 15 24 13 90 -20 103 -51 160 -69 257 -78 303 -29 519 96 569 328 7 35 11 204 11 487 l0 433 -72 12 c-143 24 -257 -3 -290 -70 -16 -31 -18 -73 -19 -400 0 -256 -4 -375 -12 -399 -7 -19 -29 -48 -50 -65 -34 -27 -48 -31 -110 -34 -63 -3 -79 0 -125 25 l-54 28 2 448 1 447 -28 11 c-15 6 -68 13 -118 16 -117 7 -189 -15 -220 -68 -19 -32 -20 -54 -23 -414 -4 -418 -3 -412 -68 -462 -51 -39 -141 -44 -224 -13 l-60 22 0 458 0 458 -63 11 c-89 15 -164 13 -221 -7z"/>
 <path d="M7745 2410 c-61 -15 -84 -30 -102 -62 -17 -31 -18 -81 -18 -818 l0 -784 35 -8 c19 -5 78 -9 131 -10 108 -1 157 15 193 65 21 28 21 38 24 817 l2 788 -63 11 c-71 12 -157 13 -202 1z"/>
 <path d="M9835 2402 c-36 -13 -55 -27 -70 -53 -20 -33 -20 -50 -20 -689 l0 -655 27 -45 c16 -28 43 -55 70 -70 l43 -25 458 -3 458 -3 16 38 c41 95 21 216 -41 254 -29 18 -53 19 -338 19 l-308 0 0 175 0 175 294 0 293 0 19 48 c22 58 23 146 1 188 -32 63 -39 64 -331 64 l-266 0 -2 288 -3 287 -55 12 c-83 17 -188 15 -245 -5z"/>
 <path d="M11146 2402 c-29 -10 -58 -29 -70 -45 -21 -28 -21 -39 -24 -589 -2 -389 1 -565 8 -572 6 -6 63 -13 126 -15 149 -4 197 11 225 73 17 38 19 75 19 592 l0 552 -63 11 c-89 15 -164 13 -221 -7z"/>
 <path d="M3418 1020 c-45 -13 -83 -40 -107 -76 -25 -37 -42 -105 -35 -141 2 -13 6 -34 9 -48 8 -36 64 -95 110 -116 99 -45 223 -7 275 85 94 163 -66 352 -252 296z"/>
 <path d="M11155 1014 c-146 -54 -170 -266 -39 -357 105 -73 265 -33 315 78 78 171 -95 345 -276 279z"/>
 </g>

</svg>